{"asset":{"version":"2.0","generator":"babylon.js glTF exporter for 3dsmax 2018 v20191202.2"},"scene":0,"scenes":[{"nodes":[0,1,2,3,4,5],"extensions":{}}],"nodes":[{"mesh":0,"translation":[0.0,152.382019,0.0],"rotation":[0.0,0.0,0.0,1.0],"scale":[1.0,1.0,1.0],"name":"CityEngineMaterial_2"},{"mesh":1,"translation":[0.0,152.513657,0.0],"rotation":[0.0,0.0,0.0,1.0],"scale":[1.0,1.0,1.0],"name":"CityEngineMaterial"},{"mesh":2,"translation":[0.0,152.531113,0.0],"rotation":[0.0,0.0,0.0,1.0],"scale":[1.0,1.0,1.0],"name":"CityEngineMaterial_1"},{"mesh":3,"translation":[0.0,152.600708,0.0],"rotation":[0.0,0.0,0.0,1.0],"scale":[1.0,1.0,1.0],"name":"CityEngineMaterial_3"},{"mesh":4,"translation":[0.0,152.305,0.0],"rotation":[0.0,0.0,0.0,1.0],"scale":[1.0,1.0,1.0],"name":"Sphere001"},{"translation":[0.0,0.0,0.0],"rotation":[0.0,0.0,0.0,1.0],"scale":[1.0,1.0,1.0],"name":"Default light"}],"meshes":[{"primitives":[{"attributes":{"POSITION":1,"NORMAL":2,"TEXCOORD_0":3},"indices":0,"mode":4,"material":0}],"name":"CityEngineMaterial_2"},{"primitives":[{"attributes":{"POSITION":5,"NORMAL":6,"TEXCOORD_0":7},"indices":4,"mode":4,"material":1}],"name":"CityEngineMaterial"},{"primitives":[{"attributes":{"POSITION":9,"NORMAL":10,"TEXCOORD_0":11},"indices":8,"mode":4,"material":2}],"name":"CityEngineMaterial_1"},{"primitives":[{"attributes":{"POSITION":13,"NORMAL":14,"TEXCOORD_0":15},"indices":12,"mode":4,"material":3}],"name":"CityEngineMaterial_3"},{"primitives":[{"attributes":{"POSITION":17,"NORMAL":18,"TEXCOORD_0":19},"indices":16}],"name":"Sphere001"}],"accessors":[{"bufferView":0,"componentType":5123,"count":504,"type":"SCALAR","name":"accessorIndices"},{"bufferView":1,"componentType":5126,"count":504,"max":[2262.53125,-13.3830261,-1297.0],"min":[2018.5,-27.1120224,-2014.5],"type":"VEC3","name":"accessorPositions"},{"bufferView":1,"byteOffset":6048,"componentType":5126,"count":504,"type":"VEC3","name":"accessorNormals"},{"bufferView":2,"componentType":5126,"count":504,"type":"VEC2","name":"accessorUVs"},{"bufferView":0,"byteOffset":1008,"componentType":5123,"count":6540,"type":"SCALAR","name":"accessorIndices"},{"bufferView":1,"byteOffset":12096,"componentType":5126,"count":6540,"max":[2297.71875,33.36734,25.5],"min":[11.75,-32.13266,-2504.0],"type":"VEC3","name":"accessorPositions"},{"bufferView":1,"byteOffset":90576,"componentType":5126,"count":6540,"type":"VEC3","name":"accessorNormals"},{"bufferView":2,"byteOffset":4032,"componentType":5126,"count":6540,"type":"VEC2","name":"accessorUVs"},{"bufferView":0,"byteOffset":14088,"componentType":5123,"count":20499,"type":"SCALAR","name":"accessorIndices"},{"bufferView":1,"byteOffset":169056,"componentType":5126,"count":20499,"max":[2297.6875,53.83989,25.0],"min":[11.71875,-40.5671158,-2504.5],"type":"VEC3","name":"accessorPositions"},{"bufferView":1,"byteOffset":415044,"componentType":5126,"count":20499,"type":"VEC3","name":"accessorNormals"},{"bufferView":2,"byteOffset":56352,"componentType":5126,"count":20499,"type":"VEC2","name":"accessorUVs"},{"bufferView":0,"byteOffset":55088,"componentType":5125,"count":1101192,"type":"SCALAR","name":"accessorIndices"},{"bufferView":1,"byteOffset":661032,"componentType":5126,"count":1101192,"max":[2188.15625,53.7702942,-73.0],"min":[401.65625,-40.63671,-2020.0],"type":"VEC3","name":"accessorPositions"},{"bufferView":1,"byteOffset":13875336,"componentType":5126,"count":1101192,"type":"VEC3","name":"accessorNormals"},{"bufferView":2,"byteOffset":220344,"componentType":5126,"count":1101192,"type":"VEC2","name":"accessorUVs"},{"bufferView":0,"byteOffset":4459856,"componentType":5123,"count":2880,"type":"SCALAR","name":"accessorIndices"},{"bufferView":1,"byteOffset":27089640,"componentType":5126,"count":2880,"max":[0.393700778,0.393700778,0.393700778],"min":[-0.393700778,-0.393700778,-0.393700778],"type":"VEC3","name":"accessorPositions"},{"bufferView":1,"byteOffset":27124200,"componentType":5126,"count":2880,"type":"VEC3","name":"accessorNormals"},{"bufferView":2,"byteOffset":9029880,"componentType":5126,"count":2880,"type":"VEC2","name":"accessorUVs"}],"bufferViews":[{"buffer":0,"byteLength":4465616,"name":"bufferViewScalar"},{"buffer":0,"byteOffset":4465616,"byteLength":27158760,"byteStride":12,"name":"bufferViewFloatVec3"},{"buffer":0,"byteOffset":31624376,"byteLength":9052920,"byteStride":8,"name":"bufferViewFloatVec2"}],"buffers":[{"uri":"Mnevniki.bin","byteLength":40677296}],"materials":[{"pbrMetallicRoughness":{"baseColorFactor":[0.5,0.5,0.5,1.0],"metallicFactor":0.0,"roughnessFactor":0.7022211},"emissiveFactor":[0.0,0.0,0.0],"alphaMode":"OPAQUE","name":"CityEngineMaterial_2"},{"pbrMetallicRoughness":{"baseColorFactor":[0.498039,0.3137255,0.0,1.0],"metallicFactor":0.0,"roughnessFactor":0.7022211},"emissiveFactor":[0.0,0.0,0.0],"alphaMode":"OPAQUE","name":"CityEngineMaterial"},{"pbrMetallicRoughness":{"baseColorFactor":[0.5,0.5,0.5,1.0],"metallicFactor":0.0,"roughnessFactor":0.7022211},"emissiveFactor":[0.0,0.0,0.0],"alphaMode":"OPAQUE","name":"CityEngineMaterial_1"},{"pbrMetallicRoughness":{"baseColorFactor":[1.0,1.0,1.0,1.0],"baseColorTexture":{"index":0,"texCoord":0},"metallicFactor":0.0,"roughnessFactor":0.7022211},"emissiveFactor":[0.0,0.0,0.0],"alphaMode":"OPAQUE","name":"CityEngineMaterial_3"}],"textures":[{"sampler":0,"source":0,"name":"CityEngineMaterial_3_baseColor.png"}],"images":[{"uri":"./CityEngineMaterial_3_baseColor.png"}],"samplers":[{"magFilter":9729,"minFilter":9987,"wrapS":10497,"wrapT":10497}]}