<svg width="363" height="114" viewBox="0 0 363 114" fill="none" xmlns="http://www.w3.org/2000/svg">
<path d="M352.794 2.50859e-05H91.6839C88.0702 -0.00510524 84.4986 0.77673 81.2175 2.29122C77.9364 3.80572 75.0244 6.01656 72.6839 8.77004L2.18393 97.95C1.04916 99.2846 0.320437 100.916 0.0839519 102.652C-0.152533 104.388 0.113072 106.155 0.849455 107.745C1.58584 109.334 2.76222 110.68 4.23923 111.622C5.71624 112.564 7.43211 113.063 9.18393 113.06H268.314C271.927 113.069 275.499 112.29 278.781 110.777C282.062 109.264 284.974 107.054 287.314 104.3L359.894 15.12C361.027 13.7843 361.755 12.1522 361.991 10.4162C362.227 8.68029 361.961 6.91305 361.225 5.32327C360.489 3.73349 359.314 2.3875 357.837 1.44424C356.361 0.500982 354.646 -0.000127599 352.894 2.50859e-05" fill="#E51E24"/>
<path d="M152.374 84.12L133.564 26.49H124.824L111.064 68.15L97.304 26.49H88.574L69.7639 84.12H81.0339L93.174 46.76L105.374 84.12H115.764L127.964 46.76L140.104 84.12H152.374Z" fill="white"/>
<path d="M202.924 74.23V26.49H192.744V74.23H166.174V26.49H156.004L155.894 84.12H206.784L211.584 74.23H202.924Z" fill="white"/>
<path d="M266.934 74.23V26.5H236.234L221.734 74.24H217.424L212.624 84.13H270.184L274.974 74.24L266.934 74.23ZM232.004 74.23L243.004 37.53H256.684V74.23H232.004Z" fill="white"/>
</svg>
