{
    "asset" : {
        "generator" : "Khronos glTF Blender I/O v1.8.19",
        "version" : "2.0"
    },
    "scene" : 0,
    "scenes" : [
        {
            "name" : "Scene",
            "nodes" : [
                5
            ]
        }
    ],
    "nodes" : [
        {
            "mesh" : 0,
            "name" : "Object_2"
        },
        {
            "mesh" : 1,
            "name" : "Object_3"
        },
        {
            "mesh" : 2,
            "name" : "Object_4"
        },
        {
            "mesh" : 3,
            "name" : "Object_5"
        },
        {
            "children" : [
                0,
                1,
                2,
                3
            ],
            "name" : "a303c315ac2a43a583a938036f0b9bed.3ds"
        },
        {
            "children" : [
                4
            ],
            "name" : "Sketchfab_model",
            "rotation" : [
                -0.7071068286895752,
                0,
                0,
                0.7071068286895752
            ]
        }
    ],
    "materials" : [
        {
            "doubleSided" : true,
            "name" : "GreenDark",
            "pbrMetallicRoughness" : {
                "baseColorFactor" : [
                    0.1254899948835373,
                    0.5058820247650146,
                    0.1333329975605011,
                    1
                ],
                "metallicFactor" : 0,
                "roughnessFactor" : 0.6000000238418579
            }
        },
        {
            "doubleSided" : true,
            "name" : "Green",
            "pbrMetallicRoughness" : {
                "baseColorFactor" : [
                    0.23921599984169006,
                    1,
                    0.2549020051956177,
                    1
                ],
                "metallicFactor" : 0,
                "roughnessFactor" : 0.6000000238418579
            }
        },
        {
            "doubleSided" : true,
            "name" : "GreenDark1",
            "pbrMetallicRoughness" : {
                "baseColorFactor" : [
                    0.19607800245285034,
                    0.513725996017456,
                    0.09019610285758972,
                    1
                ],
                "metallicFactor" : 0,
                "roughnessFactor" : 0.6000000238418579
            }
        },
        {
            "doubleSided" : true,
            "name" : "Material.002",
            "pbrMetallicRoughness" : {
                "baseColorFactor" : [
                    0.3019610047340393,
                    0.1450980007648468,
                    0.035294100642204285,
                    1
                ],
                "metallicFactor" : 0,
                "roughnessFactor" : 0.6000000238418579
            }
        }
    ],
    "meshes" : [
        {
            "name" : "Object_0",
            "primitives" : [
                {
                    "attributes" : {
                        "POSITION" : 0,
                        "NORMAL" : 1
                    },
                    "indices" : 2,
                    "material" : 0
                }
            ]
        },
        {
            "name" : "Object_1",
            "primitives" : [
                {
                    "attributes" : {
                        "POSITION" : 3,
                        "NORMAL" : 4
                    },
                    "indices" : 5,
                    "material" : 1
                }
            ]
        },
        {
            "name" : "Object_2",
            "primitives" : [
                {
                    "attributes" : {
                        "POSITION" : 6,
                        "NORMAL" : 7
                    },
                    "indices" : 8,
                    "material" : 2
                }
            ]
        },
        {
            "name" : "Object_3",
            "primitives" : [
                {
                    "attributes" : {
                        "POSITION" : 9,
                        "NORMAL" : 10
                    },
                    "indices" : 11,
                    "material" : 3
                }
            ]
        }
    ],
    "accessors" : [
        {
            "bufferView" : 0,
            "componentType" : 5126,
            "count" : 3804,
            "max" : [
                4.234091758728027,
                3.689924955368042,
                6.587912082672119
            ],
            "min" : [
                -1.1453742980957031,
                -3.378239154815674,
                3.2653744220733643
            ],
            "type" : "VEC3"
        },
        {
            "bufferView" : 1,
            "componentType" : 5126,
            "count" : 3804,
            "type" : "VEC3"
        },
        {
            "bufferView" : 2,
            "componentType" : 5123,
            "count" : 3804,
            "type" : "SCALAR"
        },
        {
            "bufferView" : 3,
            "componentType" : 5126,
            "count" : 858,
            "max" : [
                0.5719633102416992,
                1.2994542121887207,
                7.381155014038086
            ],
            "min" : [
                -2.144367218017578,
                -1.4659144878387451,
                5.502954006195068
            ],
            "type" : "VEC3"
        },
        {
            "bufferView" : 4,
            "componentType" : 5126,
            "count" : 858,
            "type" : "VEC3"
        },
        {
            "bufferView" : 5,
            "componentType" : 5123,
            "count" : 858,
            "type" : "SCALAR"
        },
        {
            "bufferView" : 6,
            "componentType" : 5126,
            "count" : 3350,
            "max" : [
                3.526827812194824,
                2.6238322257995605,
                7.360774993896484
            ],
            "min" : [
                -2.5747690200805664,
                -2.6466314792633057,
                4.409972190856934
            ],
            "type" : "VEC3"
        },
        {
            "bufferView" : 7,
            "componentType" : 5126,
            "count" : 3350,
            "type" : "VEC3"
        },
        {
            "bufferView" : 8,
            "componentType" : 5123,
            "count" : 3354,
            "type" : "SCALAR"
        },
        {
            "bufferView" : 9,
            "componentType" : 5126,
            "count" : 15401,
            "max" : [
                3.7764463424682617,
                2.5410332679748535,
                6.903109073638916
            ],
            "min" : [
                -1.8168325424194336,
                -2.3769795894622803,
                -0.008923768997192383
            ],
            "type" : "VEC3"
        },
        {
            "bufferView" : 10,
            "componentType" : 5126,
            "count" : 15401,
            "type" : "VEC3"
        },
        {
            "bufferView" : 11,
            "componentType" : 5123,
            "count" : 15528,
            "type" : "SCALAR"
        }
    ],
    "bufferViews" : [
        {
            "buffer" : 0,
            "byteLength" : 45648,
            "byteOffset" : 0
        },
        {
            "buffer" : 0,
            "byteLength" : 45648,
            "byteOffset" : 45648
        },
        {
            "buffer" : 0,
            "byteLength" : 7608,
            "byteOffset" : 91296
        },
        {
            "buffer" : 0,
            "byteLength" : 10296,
            "byteOffset" : 98904
        },
        {
            "buffer" : 0,
            "byteLength" : 10296,
            "byteOffset" : 109200
        },
        {
            "buffer" : 0,
            "byteLength" : 1716,
            "byteOffset" : 119496
        },
        {
            "buffer" : 0,
            "byteLength" : 40200,
            "byteOffset" : 121212
        },
        {
            "buffer" : 0,
            "byteLength" : 40200,
            "byteOffset" : 161412
        },
        {
            "buffer" : 0,
            "byteLength" : 6708,
            "byteOffset" : 201612
        },
        {
            "buffer" : 0,
            "byteLength" : 184812,
            "byteOffset" : 208320
        },
        {
            "buffer" : 0,
            "byteLength" : 184812,
            "byteOffset" : 393132
        },
        {
            "buffer" : 0,
            "byteLength" : 31056,
            "byteOffset" : 577944
        }
    ],
    "buffers" : [
        {
            "byteLength" : 609000,
            "uri" : "data:application/octet-stream;base64,"
        }
    ]
}
